<svg width="22" height="22" viewBox="0 0 22 22" fill="none" xmlns="http://www.w3.org/2000/svg">
<path d="M10.688 1.7375C10.7823 1.61177 10.8382 1.46138 10.8487 1.30455C10.8593 1.14773 10.8242 0.991205 10.7476 0.853951C10.671 0.716697 10.5562 0.604606 10.4172 0.531265C10.2782 0.457924 10.1209 0.426481 9.96433 0.440747C4.09916 0.975914 0.825328 5.58875 0.469994 10.3045C0.114661 15.0289 2.67674 20.0274 8.54191 21.3177C14.7017 22.6718 20.9699 18.2442 21.5592 11.9512C21.5739 11.7954 21.5433 11.6386 21.471 11.4998C21.3988 11.361 21.2879 11.246 21.1519 11.1687C21.0159 11.0913 20.8604 11.0549 20.7041 11.0638C20.5479 11.0727 20.3975 11.1265 20.2712 11.2188C17.1977 13.4602 13.6845 12.6445 11.4572 10.4345C9.232 8.22558 8.42383 4.75891 10.688 1.7375Z" fill="#0D99FF"/>
</svg>
