<svg width="60" height="60" viewBox="0 0 60 60" fill="none" xmlns="http://www.w3.org/2000/svg">
<rect width="60" height="60" rx="30" fill="#0B0C1E"/>
<path d="M34.6667 32.6667H33.6133L33.24 32.3067C34.5919 30.7388 35.3349 28.737 35.3333 26.6667C35.3333 24.9526 34.825 23.277 33.8727 21.8517C32.9204 20.4265 31.5669 19.3157 29.9833 18.6597C28.3996 18.0038 26.6571 17.8321 24.9759 18.1665C23.2947 18.5009 21.7505 19.3264 20.5384 20.5384C19.3264 21.7505 18.5009 23.2947 18.1665 24.9759C17.8321 26.6571 18.0038 28.3996 18.6597 29.9833C19.3157 31.5669 20.4265 32.9204 21.8517 33.8727C23.277 34.825 24.9526 35.3333 26.6667 35.3333C28.8133 35.3333 30.7867 34.5467 32.3067 33.24L32.6667 33.6133V34.6667L39.3333 41.32L41.32 39.3333L34.6667 32.6667ZM26.6667 32.6667C23.3467 32.6667 20.6667 29.9867 20.6667 26.6667C20.6667 23.3467 23.3467 20.6667 26.6667 20.6667C29.9867 20.6667 32.6667 23.3467 32.6667 26.6667C32.6667 29.9867 29.9867 32.6667 26.6667 32.6667Z" fill="#FFFEFF"/>
</svg>
