<svg width="28" height="28" viewBox="0 0 28 28" fill="none" xmlns="http://www.w3.org/2000/svg">
<path d="M21 14C21 15.8565 20.2625 17.637 18.9497 18.9497C17.637 20.2625 15.8565 21 14 21C12.1435 21 10.363 20.2625 9.05025 18.9497C7.7375 17.637 7 15.8565 7 14C7 12.1435 7.7375 10.363 9.05025 9.05025C10.363 7.7375 12.1435 7 14 7C15.8565 7 17.637 7.7375 18.9497 9.05025C20.2625 10.363 21 12.1435 21 14Z" fill="#EFC91D"/>
<path fill-rule="evenodd" clip-rule="evenodd" d="M14 1.45837C14.2321 1.45837 14.4547 1.55056 14.6188 1.71466C14.7829 1.87875 14.875 2.10131 14.875 2.33337V3.50004C14.875 3.73211 14.7829 3.95466 14.6188 4.11876C14.4547 4.28285 14.2321 4.37504 14 4.37504C13.768 4.37504 13.5454 4.28285 13.3813 4.11876C13.2172 3.95466 13.125 3.73211 13.125 3.50004V2.33337C13.125 2.10131 13.2172 1.87875 13.3813 1.71466C13.5454 1.55056 13.768 1.45837 14 1.45837ZM5.13221 5.13221C5.29627 4.96835 5.51866 4.87631 5.75054 4.87631C5.98242 4.87631 6.20481 4.96835 6.36887 5.13221L6.82737 5.58954C6.98684 5.75449 7.07514 5.97548 7.07326 6.2049C7.07137 6.43433 6.97945 6.65383 6.8173 6.81614C6.65514 6.97845 6.43572 7.07058 6.2063 7.07268C5.97688 7.07478 5.75581 6.98669 5.59071 6.82737L5.13221 6.36887C4.96835 6.20481 4.87631 5.98242 4.87631 5.75054C4.87631 5.51866 4.96835 5.29627 5.13221 5.13221ZM22.8679 5.13221C23.0317 5.29627 23.1238 5.51866 23.1238 5.75054C23.1238 5.98242 23.0317 6.20481 22.8679 6.36887L22.4094 6.82737C22.2435 6.98193 22.0241 7.06608 21.7974 7.06208C21.5707 7.05808 21.3545 6.96625 21.1941 6.80593C21.0338 6.64562 20.942 6.42934 20.938 6.20265C20.934 5.97597 21.0181 5.75658 21.1727 5.59071L21.6312 5.13221C21.7953 4.96835 22.0177 4.87631 22.2495 4.87631C22.4814 4.87631 22.7038 4.96835 22.8679 5.13221ZM1.45837 14C1.45837 13.768 1.55056 13.5454 1.71466 13.3813C1.87875 13.2172 2.10131 13.125 2.33337 13.125H3.50004C3.73211 13.125 3.95466 13.2172 4.11876 13.3813C4.28285 13.5454 4.37504 13.768 4.37504 14C4.37504 14.2321 4.28285 14.4547 4.11876 14.6188C3.95466 14.7829 3.73211 14.875 3.50004 14.875H2.33337C2.10131 14.875 1.87875 14.7829 1.71466 14.6188C1.55056 14.4547 1.45837 14.2321 1.45837 14ZM23.625 14C23.625 13.768 23.7172 13.5454 23.8813 13.3813C24.0454 13.2172 24.268 13.125 24.5 13.125H25.6667C25.8988 13.125 26.1213 13.2172 26.2854 13.3813C26.4495 13.5454 26.5417 13.768 26.5417 14C26.5417 14.2321 26.4495 14.4547 26.2854 14.6188C26.1213 14.7829 25.8988 14.875 25.6667 14.875H24.5C24.268 14.875 24.0454 14.7829 23.8813 14.6188C23.7172 14.4547 23.625 14.2321 23.625 14ZM21.1727 21.1727C21.3368 21.0089 21.5592 20.9168 21.791 20.9168C22.0229 20.9168 22.2453 21.0089 22.4094 21.1727L22.8679 21.6312C22.9538 21.7113 23.0228 21.8079 23.0706 21.9152C23.1184 22.0226 23.1442 22.1384 23.1462 22.2559C23.1483 22.3734 23.1267 22.4901 23.0827 22.5991C23.0387 22.708 22.9732 22.807 22.8901 22.8901C22.807 22.9732 22.708 23.0387 22.5991 23.0827C22.4901 23.1267 22.3734 23.1483 22.2559 23.1462C22.1384 23.1442 22.0226 23.1184 21.9152 23.0706C21.8079 23.0228 21.7113 22.9538 21.6312 22.8679L21.1727 22.4094C21.0089 22.2453 20.9168 22.0229 20.9168 21.791C20.9168 21.5592 21.0089 21.3368 21.1727 21.1727ZM6.82737 21.1727C6.99123 21.3368 7.08327 21.5592 7.08327 21.791C7.08327 22.0229 6.99123 22.2453 6.82737 22.4094L6.36887 22.8679C6.28877 22.9538 6.19217 23.0228 6.08484 23.0706C5.9775 23.1184 5.86164 23.1442 5.74415 23.1462C5.62666 23.1483 5.50996 23.1267 5.40101 23.0827C5.29206 23.0387 5.19308 22.9732 5.11 22.8901C5.02691 22.807 4.96141 22.708 4.9174 22.5991C4.87339 22.4901 4.85178 22.3734 4.85385 22.2559C4.85592 22.1384 4.88164 22.0226 4.92946 21.9152C4.97729 21.8079 5.04624 21.7113 5.13221 21.6312L5.58954 21.1727C5.6708 21.0914 5.76728 21.0269 5.87348 20.9829C5.97968 20.9389 6.0935 20.9162 6.20846 20.9162C6.32341 20.9162 6.43724 20.9389 6.54343 20.9829C6.64963 21.0269 6.74612 21.0914 6.82737 21.1727ZM14 23.625C14.2321 23.625 14.4547 23.7172 14.6188 23.8813C14.7829 24.0454 14.875 24.268 14.875 24.5V25.6667C14.875 25.8988 14.7829 26.1213 14.6188 26.2854C14.4547 26.4495 14.2321 26.5417 14 26.5417C13.768 26.5417 13.5454 26.4495 13.3813 26.2854C13.2172 26.1213 13.125 25.8988 13.125 25.6667V24.5C13.125 24.268 13.2172 24.0454 13.3813 23.8813C13.5454 23.7172 13.768 23.625 14 23.625Z" fill="#EFC91D"/>
</svg>
